<svg id="Layer_1" data-name="Layer 1" xmlns="http://www.w3.org/2000/svg" xmlns:xlink="http://www.w3.org/1999/xlink" viewBox="0 0 157.14 157.17"><defs><style>.cls-1{fill:url(#linear-gradient);}.cls-2,.cls-4{fill:none;}.cls-2{stroke:#eaeaea;}.cls-3{fill:url(#linear-gradient-2);}.cls-4{stroke:#ddd;stroke-opacity:0.5;stroke-width:0.94px;}.cls-5{fill:url(#linear-gradient-4);}.cls-6{fill:url(#linear-gradient-5);}</style><linearGradient id="linear-gradient" x1="-836.55" y1="5.46" x2="-836.55" y2="6.5" gradientTransform="translate(1020.92 131533.57) rotate(90) scale(157.14 157.17)" gradientUnits="userSpaceOnUse"><stop offset="0" stop-color="#fff"/><stop offset="1" stop-color="#f8f8f8"/></linearGradient><linearGradient id="linear-gradient-2" x1="-835.89" y1="6.39" x2="-835.89" y2="7.39" gradientTransform="translate(1007.27 112665.26) rotate(90) scale(134.69 134.72)" gradientUnits="userSpaceOnUse"><stop offset="0" stop-color="#f8f8f8"/><stop offset="1" stop-color="#fff"/></linearGradient><linearGradient id="linear-gradient-4" x1="472.34" y1="729.1" x2="567.42" y2="810.9" gradientTransform="translate(-236.74 -383.47) scale(0.56 0.57)" gradientUnits="userSpaceOnUse"><stop offset="0" stop-color="#5c9fd3"/><stop offset="1" stop-color="#316a99"/></linearGradient><linearGradient id="linear-gradient-5" x1="604.44" y1="860.32" x2="570.49" y2="812.28" gradientTransform="translate(-236.74 -383.47) scale(0.56 0.57)" gradientUnits="userSpaceOnUse"><stop offset="0" stop-color="#ffd43d"/><stop offset="1" stop-color="#fee875"/></linearGradient></defs><title>python</title><g id="Group-2"><g id="Switch-bevel"><ellipse cx="78.57" cy="78.58" rx="78.59" ry="78.57"/><ellipse id="path-7" class="cls-1" cx="78.57" cy="78.58" rx="78.59" ry="78.57"/><ellipse class="cls-2" cx="78.57" cy="78.58" rx="78.09" ry="78.07"/></g><g id="Switch-inner"><ellipse cx="78.57" cy="78.59" rx="67.36" ry="67.34"/><ellipse id="path-9" class="cls-3" cx="78.57" cy="78.59" rx="67.36" ry="67.34"/><ellipse class="cls-4" cx="78.57" cy="78.58" rx="66.89" ry="66.88"/></g></g><g id="Group-2-2"><g id="Switch-inner-2"><ellipse cx="78.57" cy="78.59" rx="67.36" ry="67.34"/><ellipse id="path-23" class="cls-3" cx="78.57" cy="78.59" rx="67.36" ry="67.34"/><ellipse class="cls-2" cx="78.57" cy="78.59" rx="66.86" ry="66.84"/></g></g><path class="cls-5" d="M78,29.57a66.78,66.78,0,0,0-11.18.95c-9.89,1.75-11.69,5.41-11.69,12.16V51.6H78.56v3H46.39A14.6,14.6,0,0,0,31.78,66.42a43.71,43.71,0,0,0,0,23.77C33.45,97.11,37.42,102,44.2,102h8V91.33A14.86,14.86,0,0,1,66.86,76.81H90.17a11.78,11.78,0,0,0,11.69-11.87V42.68c0-6.34-5.35-11.1-11.69-12.16A72.93,72.93,0,0,0,78,29.57ZM65.34,36.74a4.46,4.46,0,1,1-4.4,4.52v0A4.44,4.44,0,0,1,65.34,36.74Z"/><path class="cls-6" d="M104.78,54.57V65A15,15,0,0,1,90.17,79.78H66.81A11.93,11.93,0,0,0,55.12,91.66v22.27c0,6.34,5.51,10.06,11.69,11.89a39.13,39.13,0,0,0,23.36,0c5.88-1.7,11.69-5.13,11.69-11.89V105H78.56v-3h35c6.8,0,9.33-4.75,11.69-11.85s2.34-14.37,0-23.77c-1.68-6.77-4.89-11.85-11.69-11.85ZM91.64,111a4.46,4.46,0,1,1-4.4,4.52s0-.09,0-.14A4.41,4.41,0,0,1,91.64,111Z"/></svg>