<svg id="Layer_1" data-name="Layer 1" xmlns="http://www.w3.org/2000/svg" xmlns:xlink="http://www.w3.org/1999/xlink" viewBox="0 0 157.14 157.17"><defs><style>.cls-1{fill:url(#linear-gradient);}.cls-2,.cls-4{fill:none;}.cls-2{stroke:#eaeaea;}.cls-3{fill:url(#linear-gradient-2);}.cls-4{stroke:#ddd;stroke-opacity:0.5;stroke-width:0.94px;}.cls-5{fill:url(#linear-gradient-4);}.cls-6{fill:url(#linear-gradient-5);}.cls-7{fill:url(#linear-gradient-6);}.cls-8{fill:url(#linear-gradient-7);}.cls-9{fill:url(#linear-gradient-8);}.cls-10{fill:url(#linear-gradient-9);}.cls-11{fill:url(#linear-gradient-10);}.cls-12{fill:url(#linear-gradient-11);}.cls-13{fill:#fff;}.cls-14{fill:url(#linear-gradient-12);}.cls-15{fill:url(#linear-gradient-13);}.cls-16{fill:url(#linear-gradient-14);}.cls-17{fill:url(#linear-gradient-15);}.cls-18{fill:#9e1209;}.cls-19{fill:url(#radial-gradient);}.cls-20{fill:url(#radial-gradient-2);}.cls-21{fill:url(#linear-gradient-16);}.cls-22{fill:url(#linear-gradient-17);}</style><linearGradient id="linear-gradient" x1="-836.55" y1="5.46" x2="-836.55" y2="6.5" gradientTransform="translate(1020.92 131533.57) rotate(90) scale(157.14 157.17)" gradientUnits="userSpaceOnUse"><stop offset="0" stop-color="#fff"/><stop offset="1" stop-color="#f8f8f8"/></linearGradient><linearGradient id="linear-gradient-2" x1="-835.89" y1="6.39" x2="-835.89" y2="7.39" gradientTransform="translate(1007.27 112665.26) rotate(90) scale(134.69 134.72)" gradientUnits="userSpaceOnUse"><stop offset="0" stop-color="#f8f8f8"/><stop offset="1" stop-color="#fff"/></linearGradient><linearGradient id="linear-gradient-4" x1="333.41" y1="-284.17" x2="316.47" y2="-254.24" gradientTransform="matrix(1, 0, 0, -1, -227.43, -160.24)" gradientUnits="userSpaceOnUse"><stop offset="0" stop-color="#fb7655"/><stop offset="0.41" stop-color="#e42b1e"/><stop offset="0.99" stop-color="#900"/><stop offset="1" stop-color="#900"/></linearGradient><linearGradient id="linear-gradient-5" x1="341.85" y1="-259.03" x2="320.01" y2="-244.37" gradientTransform="matrix(1, 0, 0, -1, -227.43, -160.24)" gradientUnits="userSpaceOnUse"><stop offset="0" stop-color="#871101"/><stop offset="0.99" stop-color="#911209"/><stop offset="1" stop-color="#911209"/></linearGradient><linearGradient id="linear-gradient-6" x1="324.38" y1="-285.07" x2="302.54" y2="-270.42" xlink:href="#linear-gradient-5"/><linearGradient id="linear-gradient-7" x1="278.52" y1="-248.42" x2="281.91" y2="-270.43" gradientTransform="matrix(1, 0, 0, -1, -227.43, -160.24)" gradientUnits="userSpaceOnUse"><stop offset="0" stop-color="#fff"/><stop offset="0.23" stop-color="#e57252"/><stop offset="0.46" stop-color="#de3b20"/><stop offset="0.99" stop-color="#a60003"/><stop offset="1" stop-color="#a60003"/></linearGradient><linearGradient id="linear-gradient-8" x1="301.81" y1="-227.87" x2="303.06" y2="-250.33" gradientTransform="matrix(1, 0, 0, -1, -227.43, -160.24)" gradientUnits="userSpaceOnUse"><stop offset="0" stop-color="#fff"/><stop offset="0.23" stop-color="#e4714e"/><stop offset="0.56" stop-color="#be1a0d"/><stop offset="0.99" stop-color="#a80d00"/><stop offset="1" stop-color="#a80d00"/></linearGradient><linearGradient id="linear-gradient-9" x1="322.48" y1="-207.12" x2="326.21" y2="-223.21" gradientTransform="matrix(1, 0, 0, -1, -227.43, -160.24)" gradientUnits="userSpaceOnUse"><stop offset="0" stop-color="#fff"/><stop offset="0.18" stop-color="#e46342"/><stop offset="0.4" stop-color="#c82410"/><stop offset="0.99" stop-color="#a80d00"/><stop offset="1" stop-color="#a80d00"/></linearGradient><linearGradient id="linear-gradient-10" x1="311.07" y1="-201.45" x2="327.17" y2="-193.4" gradientTransform="matrix(1, 0, 0, -1, -227.43, -160.24)" gradientUnits="userSpaceOnUse"><stop offset="0" stop-color="#fff"/><stop offset="0.54" stop-color="#c81f11"/><stop offset="0.99" stop-color="#bf0905"/><stop offset="1" stop-color="#bf0905"/></linearGradient><linearGradient id="linear-gradient-11" x1="264.42" y1="-242.81" x2="265.74" y2="-256.07" gradientTransform="matrix(1, 0, 0, -1, -227.43, -160.24)" gradientUnits="userSpaceOnUse"><stop offset="0" stop-color="#fff"/><stop offset="0.31" stop-color="#de4024"/><stop offset="0.99" stop-color="#bf190b"/><stop offset="1" stop-color="#bf190b"/></linearGradient><linearGradient id="linear-gradient-12" x1="255.31" y1="-259.66" x2="317.58" y2="-195.63" gradientTransform="matrix(1, 0, 0, -1, -227.43, -160.24)" gradientUnits="userSpaceOnUse"><stop offset="0" stop-color="#bd0012"/><stop offset="0.07" stop-color="#fff"/><stop offset="0.17" stop-color="#fff"/><stop offset="0.27" stop-color="#c82f1c"/><stop offset="0.33" stop-color="#820c01"/><stop offset="0.46" stop-color="#a31601"/><stop offset="0.72" stop-color="#b31301"/><stop offset="0.99" stop-color="#e82609"/><stop offset="1" stop-color="#e82609"/></linearGradient><linearGradient id="linear-gradient-13" x1="303" y1="-266.12" x2="284.25" y2="-261.49" gradientTransform="matrix(1, 0, 0, -1, -227.43, -160.24)" gradientUnits="userSpaceOnUse"><stop offset="0" stop-color="#8c0c01"/><stop offset="0.54" stop-color="#990c00"/><stop offset="0.99" stop-color="#a80d0e"/><stop offset="1" stop-color="#a80d0e"/></linearGradient><linearGradient id="linear-gradient-14" x1="335.22" y1="-243.61" x2="318.56" y2="-228.67" gradientTransform="matrix(1, 0, 0, -1, -227.43, -160.24)" gradientUnits="userSpaceOnUse"><stop offset="0" stop-color="#7e110b"/><stop offset="0.99" stop-color="#9e0c00"/><stop offset="1" stop-color="#9e0c00"/></linearGradient><linearGradient id="linear-gradient-15" x1="341.34" y1="-216.21" x2="333.04" y2="-207.33" gradientTransform="matrix(1, 0, 0, -1, -227.43, -160.24)" gradientUnits="userSpaceOnUse"><stop offset="0" stop-color="#79130d"/><stop offset="0.99" stop-color="#9e120b"/><stop offset="1" stop-color="#9e120b"/></linearGradient><radialGradient id="radial-gradient" cx="321.15" cy="-228.96" r="20.42" gradientTransform="matrix(1, 0, 0, -1, -227.43, -160.24)" gradientUnits="userSpaceOnUse"><stop offset="0" stop-color="#a80d00"/><stop offset="0.99" stop-color="#7e0e08"/><stop offset="1" stop-color="#7e0e08"/></radialGradient><radialGradient id="radial-gradient-2" cx="292.87" cy="-255.87" r="27.14" gradientTransform="matrix(1, 0, 0, -1, -227.43, -160.24)" gradientUnits="userSpaceOnUse"><stop offset="0" stop-color="#a30c00"/><stop offset="0.99" stop-color="#800e08"/><stop offset="1" stop-color="#800e08"/></radialGradient><linearGradient id="linear-gradient-16" x1="273.65" y1="-276.78" x2="266.88" y2="-253.83" gradientTransform="matrix(1, 0, 0, -1, -227.43, -160.24)" gradientUnits="userSpaceOnUse"><stop offset="0" stop-color="#8b2114"/><stop offset="0.43" stop-color="#9e100a"/><stop offset="0.99" stop-color="#b3100c"/><stop offset="1" stop-color="#b3100c"/></linearGradient><linearGradient id="linear-gradient-17" x1="325.53" y1="-200.74" x2="340.7" y2="-207.44" gradientTransform="matrix(1, 0, 0, -1, -227.43, -160.24)" gradientUnits="userSpaceOnUse"><stop offset="0" stop-color="#b31000"/><stop offset="0.44" stop-color="#910f08"/><stop offset="0.99" stop-color="#791c12"/><stop offset="1" stop-color="#791c12"/></linearGradient></defs><title>ruby</title><g id="Group-2"><g id="Switch-bevel"><ellipse cx="78.57" cy="78.58" rx="78.59" ry="78.57"/><ellipse id="path-7" class="cls-1" cx="78.57" cy="78.58" rx="78.59" ry="78.57"/><ellipse class="cls-2" cx="78.57" cy="78.58" rx="78.09" ry="78.07"/></g><g id="Switch-inner"><ellipse cx="78.57" cy="78.59" rx="67.36" ry="67.34"/><ellipse id="path-9" class="cls-3" cx="78.57" cy="78.59" rx="67.36" ry="67.34"/><ellipse class="cls-4" cx="78.57" cy="78.58" rx="66.89" ry="66.88"/></g></g><g id="Group-2-2"><g id="Switch-inner-2"><ellipse cx="78.57" cy="78.59" rx="67.36" ry="67.34"/><ellipse id="path-23" class="cls-3" cx="78.57" cy="78.59" rx="67.36" ry="67.34"/><ellipse class="cls-2" cx="78.57" cy="78.59" rx="66.86" ry="66.84"/></g></g><polygon id="polygon3282" class="cls-5" points="97.64 89.4 51.78 116.64 111.16 112.61 115.74 52.72 97.64 89.4"/><polygon id="polygon3293" class="cls-6" points="111.26 112.56 106.16 77.33 92.25 95.69 111.26 112.56"/><polygon id="polygon3304" class="cls-7" points="111.33 112.56 73.93 109.63 51.98 116.56 111.33 112.56"/><polygon id="polygon3319" class="cls-8" points="52.03 116.57 61.37 85.96 40.81 90.36 52.03 116.57"/><polygon id="polygon3334" class="cls-9" points="92.25 95.8 83.65 62.13 59.05 85.18 92.25 95.8"/><polygon id="polygon3349" class="cls-10" points="113.79 62.6 90.53 43.61 84.06 64.54 113.79 62.6"/><polygon id="polygon3362" class="cls-11" points="102.91 36.84 89.24 44.4 80.61 36.74 102.91 36.84"/><polygon id="polygon3375" class="cls-12" points="35.4 100.62 41.13 90.17 36.5 77.73 35.4 100.62"/><path id="path3377" class="cls-13" d="M36.19,77.33l4.66,13.23L61.11,86l23.13-21.5,6.53-20.73L80.49,36.53,63,43.07c-5.51,5.12-16.19,15.25-16.57,15.44S39.39,71.32,36.19,77.33Z"/><path id="path3400" class="cls-14" d="M52.56,53.57C64.49,41.74,79.88,34.75,85.78,40.71S85.42,61.14,73.49,73s-27.12,19.2-33,13.25S40.63,65.4,52.56,53.57Z"/><path id="path3413" class="cls-15" d="M52,116.55l9.27-30.7,30.78,9.89C80.95,106.18,68.57,115,52,116.55Z"/><path id="path3424" class="cls-16" d="M84.29,64.46l7.9,31.3c9.3-9.78,17.64-20.28,21.73-33.28Z"/><path id="path3435" class="cls-17" d="M113.83,62.63c3.16-9.54,3.89-23.24-11-25.78L90.58,43.61Z"/><path id="path3437" class="cls-18" d="M35.4,100.49c.44,15.75,11.8,16,16.64,16.13L40.87,90.5Z"/><path id="path3448" class="cls-19" d="M84.33,64.51c7.14,4.39,21.54,13.21,21.83,13.37.45.26,6.21-9.7,7.51-15.33Z"/><path id="path3459" class="cls-20" d="M61.28,85.85l12.39,23.91A80.12,80.12,0,0,0,92,95.76Z"/><path id="path3472" class="cls-21" d="M40.82,90.53l-1.76,20.91c3.31,4.52,7.87,4.92,12.65,4.57C48.25,107.39,41.34,90.18,40.82,90.53Z"/><path id="path3485" class="cls-22" d="M90.5,43.67l24.62,3.45c-1.31-5.57-5.35-9.16-12.22-10.28Z"/></svg>