<?xml version="1.0" encoding="UTF-8"?>
<svg width="25px" height="32px" viewBox="0 0 25 32" version="1.1" xmlns="http://www.w3.org/2000/svg" xmlns:xlink="http://www.w3.org/1999/xlink">
    <!-- Generator: Sketch 46.2 (44496) - http://www.bohemiancoding.com/sketch -->
    <title>pdf (1)</title>
    <desc>Created with Sketch.</desc>
    <defs></defs>
    <g id="Page-1" stroke="none" stroke-width="1" fill="none" fill-rule="evenodd">
        <g id="smts-copy" transform="translate(-108.000000, -381.000000)" fill-rule="nonzero">
            <g id="Group-4" transform="translate(91.000000, 182.000000)">
                <g id="Group-11" transform="translate(0.000000, 184.000000)">
                    <g id="Group-3" transform="translate(1.000000, 0.000000)">
                        <g id="pdf-(1)" transform="translate(16.000000, 15.000000)">
                            <path d="M17.6051136,0 L1.11534091,0 C0.65625,0 0.284090909,0.374285714 0.284090909,1.10057143 L0.284090909,31.4285714 C0.284090909,31.6257143 0.65625,32 1.11534091,32 L23.8846591,32 C24.34375,32 24.7159091,31.6257143 24.7159091,31.4285714 L24.7159091,7.416 C24.7159091,7.01828571 24.6630682,6.89028571 24.5698864,6.796 L17.9585227,0.146857143 C17.8647727,0.0531428571 17.7375,0 17.6051136,0 Z" id="Shape" fill="#E9E9E0"></path>
                            <polygon id="Shape" fill="#D9D7CA" points="17.8977273 0.0862857143 17.8977273 6.85714286 24.6301136 6.85714286"></polygon>
                            <path d="M7.67840909,19.0422857 L7.67840909,19.0422857 C7.48068182,19.0422857 7.29090909,18.9777143 7.12897727,18.856 C6.5375,18.4097143 6.45795455,17.9131429 6.49545455,17.5748571 C6.59886364,16.6445714 7.74261364,15.6708571 9.89602273,14.6788571 C10.7505682,12.7954286 11.5636364,10.4748571 12.0482955,8.536 C11.48125,7.29485714 10.9301136,5.68457143 11.3318182,4.74 C11.4727273,4.40914286 11.6482955,4.15542857 11.9761364,4.04571429 C12.1056818,4.00228571 12.4329545,3.94742857 12.5534091,3.94742857 C12.8397727,3.94742857 13.0914773,4.31828571 13.2698864,4.54685714 C13.4375,4.76171429 13.8176136,5.21714286 13.0579545,8.43371429 C13.8238636,10.0245714 14.9090909,11.6451429 15.9488636,12.7548571 C16.69375,12.6194286 17.3346591,12.5502857 17.8568182,12.5502857 C18.7465909,12.5502857 19.2857955,12.7588571 19.5056818,13.1885714 C19.6875,13.544 19.6130682,13.9594286 19.2840909,14.4228571 C18.9676136,14.868 18.53125,15.1034286 18.0227273,15.1034286 C17.3318182,15.1034286 16.5272727,14.6645714 15.6301136,13.7977143 C14.0181818,14.1365714 12.1357955,14.7411429 10.6142045,15.4102857 C10.1392045,16.424 9.68409091,17.2405714 9.26022727,17.8394286 C8.67784091,18.6594286 8.17556818,19.0422857 7.67840909,19.0422857 Z M9.19090909,16.1131429 C7.97670455,16.7994286 7.48181818,17.3634286 7.44602273,17.6811429 C7.44034091,17.7337143 7.425,17.872 7.69090909,18.0765714 C7.77556818,18.0497143 8.26988636,17.8228571 9.19090909,16.1131429 Z M16.9392045,13.5748571 C17.4022727,13.9331429 17.5153409,14.1142857 17.8181818,14.1142857 C17.9511364,14.1142857 18.3301136,14.1085714 18.5056818,13.8622857 C18.5903409,13.7428571 18.6232955,13.6662857 18.6363636,13.6251429 C18.5664773,13.588 18.4738636,13.5125714 17.96875,13.5125714 C17.6818182,13.5131429 17.3210227,13.5257143 16.9392045,13.5748571 Z M12.6948864,9.81371429 C12.2886364,11.2274286 11.7522727,12.7537143 11.1755682,14.136 C12.3630682,13.6725714 13.6539773,13.268 14.8664773,12.9817143 C14.0994318,12.0857143 13.3329545,10.9668571 12.6948864,9.81371429 Z M12.35,4.97828571 C12.2943182,4.99714286 11.5943182,5.98228571 12.4045455,6.816 C12.94375,5.60742857 12.3744318,4.97028571 12.35,4.97828571 Z" id="Shape" fill="#CC4B4C"></path>
                            <path d="M23.8846591,32 L1.11534091,32 C0.65625,32 0.284090909,31.6257143 0.284090909,31.164 L0.284090909,22.2857143 L24.7159091,22.2857143 L24.7159091,31.164 C24.7159091,31.6257143 24.34375,32 23.8846591,32 Z" id="Shape" fill="#CC4B4C"></path>
                            <g id="Group" transform="translate(5.113636, 24.000000)" fill="#FFFFFF">
                                <path d="M1.35511364,6.28571429 L0.422727273,6.28571429 L0.422727273,0.528 L2.06931818,0.528 C2.3125,0.528 2.55340909,0.566857143 2.79147727,0.645142857 C3.02954545,0.723428571 3.24318182,0.840571429 3.43238636,0.996571429 C3.62159091,1.15257143 3.77443182,1.34171429 3.89090909,1.56285714 C4.00738636,1.784 4.06590909,2.03257143 4.06590909,2.30914286 C4.06590909,2.60114286 4.01647727,2.86514286 3.91818182,3.10228571 C3.81988636,3.33942857 3.68238636,3.53885714 3.50625,3.7 C3.33011364,3.86114286 3.11761364,3.98628571 2.86931818,4.07485714 C2.62102273,4.16342857 2.34602273,4.20742857 2.04602273,4.20742857 L1.35454545,4.20742857 L1.35454545,6.28571429 L1.35511364,6.28571429 Z M1.35511364,1.23885714 L1.35511364,3.52 L2.20965909,3.52 C2.32329545,3.52 2.43579545,3.50057143 2.54772727,3.46114286 C2.65909091,3.42228571 2.76136364,3.35828571 2.85454545,3.26971429 C2.94772727,3.18114286 3.02272727,3.05771429 3.07954545,2.89885714 C3.13636364,2.74 3.16477273,2.54342857 3.16477273,2.30914286 C3.16477273,2.21542857 3.15170455,2.10685714 3.12613636,1.98514286 C3.1,1.86285714 3.04715909,1.74571429 2.96704545,1.63371429 C2.88636364,1.52171429 2.77386364,1.428 2.62897727,1.35257143 C2.48409091,1.27714286 2.29204545,1.23942857 2.05397727,1.23942857 L1.35511364,1.23942857 L1.35511364,1.23885714 Z" id="Shape"></path>
                                <path d="M9.78352273,3.24685714 C9.78352273,3.72057143 9.73295455,4.12571429 9.63181818,4.46171429 C9.53068182,4.79771429 9.40284091,5.07885714 9.24715909,5.30571429 C9.09147727,5.53257143 8.91704545,5.71085714 8.72272727,5.84114286 C8.52840909,5.97142857 8.34090909,6.06857143 8.15965909,6.13428571 C7.97840909,6.19942857 7.8125,6.24114286 7.6625,6.25942857 C7.5125,6.27657143 7.40113636,6.28571429 7.32840909,6.28571429 L5.16136364,6.28571429 L5.16136364,0.528 L6.88579545,0.528 C7.36761364,0.528 7.79090909,0.605142857 8.15568182,0.758285714 C8.52045455,0.911428571 8.82386364,1.11657143 9.06477273,1.37142857 C9.30568182,1.62628571 9.48522727,1.91714286 9.60454545,2.24228571 C9.72386364,2.568 9.78352273,2.90285714 9.78352273,3.24685714 Z M7.01818182,5.59828571 C7.65,5.59828571 8.10568182,5.39542857 8.38522727,4.98914286 C8.66477273,4.58285714 8.80454545,3.99428571 8.80454545,3.22342857 C8.80454545,2.984 8.77613636,2.74685714 8.71931818,2.51257143 C8.66193182,2.27828571 8.55227273,2.06628571 8.38920455,1.876 C8.22613636,1.68571429 8.00454545,1.532 7.725,1.41485714 C7.44545455,1.29771429 7.08295455,1.23885714 6.6375,1.23885714 L6.09375,1.23885714 L6.09375,5.59828571 L7.01818182,5.59828571 L7.01818182,5.59828571 Z" id="Shape"></path>
                                <polygon id="Shape" points="12.0829545 1.23885714 12.0829545 3.05142857 14.4755682 3.05142857 14.4755682 3.692 12.0829545 3.692 12.0829545 6.28571429 11.1352273 6.28571429 11.1352273 0.528 14.7159091 0.528 14.7159091 1.23885714"></polygon>
                            </g>
                        </g>
                    </g>
                </g>
            </g>
        </g>
    </g>
</svg>