<svg id="Layer_1" data-name="Layer 1" xmlns="http://www.w3.org/2000/svg" xmlns:xlink="http://www.w3.org/1999/xlink" viewBox="0 0 157.14 157.17"><defs><style>.cls-1{fill:url(#linear-gradient);}.cls-2,.cls-4{fill:none;}.cls-2{stroke:#eaeaea;}.cls-3{fill:url(#linear-gradient-2);}.cls-4{stroke:#ddd;stroke-opacity:0.5;stroke-width:0.94px;}.cls-5{fill:#8cc84b;}</style><linearGradient id="linear-gradient" x1="-836.55" y1="5.46" x2="-836.55" y2="6.5" gradientTransform="translate(1020.92 131533.57) rotate(90) scale(157.14 157.17)" gradientUnits="userSpaceOnUse"><stop offset="0" stop-color="#fff"/><stop offset="1" stop-color="#f8f8f8"/></linearGradient><linearGradient id="linear-gradient-2" x1="-835.89" y1="6.39" x2="-835.89" y2="7.39" gradientTransform="translate(1007.27 112665.26) rotate(90) scale(134.69 134.72)" gradientUnits="userSpaceOnUse"><stop offset="0" stop-color="#f8f8f8"/><stop offset="1" stop-color="#fff"/></linearGradient></defs><title>nodejs</title><g id="Group-2"><g id="Switch-bevel"><ellipse cx="78.57" cy="78.58" rx="78.59" ry="78.57"/><ellipse id="path-7" class="cls-1" cx="78.57" cy="78.58" rx="78.59" ry="78.57"/><ellipse class="cls-2" cx="78.57" cy="78.58" rx="78.09" ry="78.07"/></g><g id="Switch-inner"><ellipse cx="78.57" cy="78.59" rx="67.36" ry="67.34"/><ellipse id="path-9" class="cls-3" cx="78.57" cy="78.59" rx="67.36" ry="67.34"/><ellipse class="cls-4" cx="78.57" cy="78.58" rx="66.89" ry="66.88"/></g></g><g id="Group-2-2"><g id="Switch-inner-2"><ellipse cx="78.57" cy="78.58" rx="67.36" ry="67.34"/><ellipse id="path-23" class="cls-3" cx="78.57" cy="78.58" rx="67.36" ry="67.34"/><ellipse class="cls-2" cx="78.57" cy="78.58" rx="66.86" ry="66.84"/></g></g><path class="cls-5" d="M74.65,31.69a8,8,0,0,1,7.85,0l35.83,20.24a7.38,7.38,0,0,1,3.73,6.35v40.6a7.46,7.46,0,0,1-4,6.49L82.34,125.52a7.81,7.81,0,0,1-7.93-.22L63.7,119.11a6.31,6.31,0,0,1-2.07-1.49c.46-.61,1.27-.69,1.93-1a25,25,0,0,0,4.23-2,1,1,0,0,1,1.1.07C71.94,116.51,75,118.31,78,120c.65.38,1.31-.12,1.87-.43Q97.42,109.7,115,99.82a1.16,1.16,0,0,0,.64-1.14q0-20.09,0-40.19a1.26,1.26,0,0,0-.75-1.25L79.27,37.19a1.24,1.24,0,0,0-1.4,0L42.29,57.25a1.24,1.24,0,0,0-.75,1.25q0,20.09,0,40.19a1.14,1.14,0,0,0,.65,1.13l9.5,5.37a7.34,7.34,0,0,0,5.94.8,4.51,4.51,0,0,0,2.92-4.23c0-13.32,0-26.63,0-39.95a1,1,0,0,1,1.09-1c1.52,0,3,0,4.56,0a1.05,1.05,0,0,1,1,1.22c0,13.4,0,26.8,0,40.2,0,3.57-1.46,7.46-4.77,9.21-4.07,2.11-9.1,1.66-13.12-.36-3.48-1.74-6.8-3.79-10.22-5.65a7.44,7.44,0,0,1-4-6.49V58.29a7.39,7.39,0,0,1,3.85-6.43Z"/><path class="cls-5" d="M85,59.82c5.19-.33,10.75-.2,15.42,2.36a11.66,11.66,0,0,1,5.69,10.09,1.09,1.09,0,0,1-1.19.8c-1.51,0-3,0-4.52,0a1.16,1.16,0,0,1-1.09-1.13,6.88,6.88,0,0,0-3.29-4.75c-2.78-1.39-6-1.32-9-1.29-2.21.12-4.59.31-6.46,1.61a4.09,4.09,0,0,0-1.36,4.57c.48,1.15,1.81,1.52,2.9,1.86,6.26,1.64,12.89,1.47,19,3.63,2.54.88,5,2.58,5.9,5.24a11.2,11.2,0,0,1-1.9,10.69,15,15,0,0,1-8,4.33,38.63,38.63,0,0,1-12.14.52c-3.8-.43-7.75-1.43-10.68-4a11.2,11.2,0,0,1-3.61-8.84,1,1,0,0,1,1.11-.89c1.52,0,3,0,4.55,0a1.06,1.06,0,0,1,1.09,1.05A6.89,6.89,0,0,0,80,90.49c3.08,2,7,1.85,10.48,1.91,2.92-.13,6.21-.17,8.59-2.1a4.75,4.75,0,0,0,1.29-4.53c-.37-1.34-1.77-2-3-2.37-6.18-2-12.88-1.24-19-3.45-2.48-.88-4.88-2.54-5.84-5.09A10.42,10.42,0,0,1,74.6,64c2.73-2.75,6.68-3.81,10.43-4.19Z"/></svg>