<?xml version="1.0" encoding="utf-8"?>
<!-- Generator: Adobe Illustrator 20.1.0, SVG Export Plug-In . SVG Version: 6.00 Build 0)  -->
<svg version="1.1" id="Layer_1" xmlns="http://www.w3.org/2000/svg" xmlns:xlink="http://www.w3.org/1999/xlink" x="0px" y="0px"
	 viewBox="0 0 144 48" style="enable-background:new 0 0 144 48;" xml:space="preserve">
<style type="text/css">
	.st0{fill:#171F24;}
</style>
<title>steem-icon-typo copy</title>
<desc>Created with Sketch.</desc>
<g id="Page-1_1_">
	<g id="smts-copy" transform="translate(-24.000000, -20.000000)">
		<g id="steem-icon-typo-copy" transform="translate(24.000000, 20.000000)">
			<g id="Page-1">
				<path id="Fill-1" class="st0" d="M6.5,5.3C6.1,5.1,0.1,10,0.1,13.7c0,5,6.9,16.2,8.1,20.6c1,3.7-1.7,8.2-1,8.4
					c0.7,0.4,7.2-6.1,7.4-9c0.3-4.5-7.6-17.5-8.2-20.9C5.8,8.9,7.1,5.4,6.5,5.3L6.5,5.3z"/>
				<path id="Fill-2" class="st0" d="M21.4,0.2c-0.6-0.3-8.2,6-8.2,10.6c0,6.3,8.8,20.7,10.3,26.2c1.3,4.8-2.2,10.5-1.2,10.7
					c0.9,0.6,9.1-7.8,9.5-11.4c0.4-5.7-9.6-22.3-10.5-26.6C20.4,4.7,22.1,0.3,21.4,0.2L21.4,0.2z"/>
				<path id="Fill-3" class="st0" d="M36.7,5.3c-0.5-0.2-6.4,4.7-6.4,8.3c0,5,6.9,16.2,8.1,20.6c1,3.7-1.7,8.2-1,8.4
					c0.7,0.4,7.2-6.1,7.4-9c0.3-4.5-7.6-17.5-8.2-20.9C35.9,8.9,37.2,5.4,36.7,5.3L36.7,5.3z"/>
			</g>
			<path id="steem" class="st0" d="M76.6,27.3c0-5.4-8.3-3.7-8.3-6.3c0-1.1,0.9-1.8,2.4-1.8c1.2,0,2.3,0.3,3.3,1
				c0.2,0.2,0.5,0.2,0.7,0.2c0.6,0,1.2-0.5,1.2-1.2c0-0.2-0.1-0.5-0.3-0.7c-0.9-1-3.1-1.6-4.8-1.6c-3.2,0-5.2,1.8-5.2,4.2
				c0,5.3,8.3,3.4,8.3,6.4c0,0.9-0.8,1.9-2.8,1.9c-1.5,0-2.8-0.5-3.8-1.3c-0.2-0.2-0.5-0.2-0.7-0.2c-0.6,0-1.2,0.6-1.2,1.2
				c0,0.3,0.1,0.5,0.3,0.7c1,1.1,3.2,1.8,5.3,1.8C75,31.7,76.6,29.7,76.6,27.3L76.6,27.3z M92.4,18.2c0-0.6-0.5-1.1-1.1-1.1h-9.2
				c-0.6,0-1.1,0.5-1.1,1.1c0,0.7,0.5,1.2,1.1,1.2h3.3v11c0,0.7,0.6,1.3,1.3,1.3c0.7,0,1.3-0.6,1.3-1.3v-11h3.3
				C91.9,19.4,92.4,18.9,92.4,18.2L92.4,18.2z M107.6,30.3c0-0.6-0.5-1.1-1.1-1.1h-6.3v-3.9h6.2c0.6,0,1.1-0.5,1.1-1.1
				c0-0.6-0.5-1.1-1.1-1.1h-6.2v-3.7h6.3c0.6,0,1.1-0.5,1.1-1.1c0-0.6-0.5-1.1-1.1-1.1h-7.3c-0.9,0-1.5,0.7-1.5,1.5v11.3
				c0,0.8,0.7,1.5,1.5,1.5h7.3C107.1,31.4,107.6,31,107.6,30.3L107.6,30.3z M123.3,30.3c0-0.6-0.5-1.1-1.1-1.1h-6.3v-3.9h6.2
				c0.6,0,1.1-0.5,1.1-1.1c0-0.6-0.5-1.1-1.1-1.1h-6.2v-3.7h6.3c0.6,0,1.1-0.5,1.1-1.1c0-0.6-0.5-1.1-1.1-1.1h-7.3
				c-0.9,0-1.5,0.7-1.5,1.5v11.3c0,0.8,0.7,1.5,1.5,1.5h7.3C122.8,31.4,123.3,31,123.3,30.3L123.3,30.3z M144,30.3V18.7
				c0-1.2-1.1-1.7-2.3-1.6c-0.8,0-1.5,0.5-1.8,1.2l-3.4,8.3l-3.4-8.3c-0.4-1-1.4-1.3-2.5-1.2c-0.9,0-1.6,0.7-1.6,1.6v11.6
				c0,0.7,0.6,1.3,1.2,1.3c0.7,0,1.3-0.6,1.3-1.3v-9.6l4.2,10.4c0.1,0.3,0.4,0.5,0.7,0.5c0.3,0,0.6-0.2,0.7-0.5l4.2-10.4v9.6
				c0,0.7,0.6,1.3,1.3,1.3C143.4,31.6,144,31,144,30.3L144,30.3z"/>
		</g>
	</g>
</g>
</svg>
