<?xml version="1.0" encoding="utf-8"?>
<!-- Generator: Adobe Illustrator 22.0.1, SVG Export Plug-In . SVG Version: 6.00 Build 0)  -->
<svg version="1.1" id="Layer_1" xmlns="http://www.w3.org/2000/svg" xmlns:xlink="http://www.w3.org/1999/xlink" x="0px" y="0px"
	 viewBox="0 0 157.4 157.5" style="enable-background:new 0 0 157.4 157.5;" xml:space="preserve">
<style type="text/css">
	.st0{fill:url(#path-7_2_);}
	.st1{fill:none;stroke:#EAEAEA;}
	.st2{fill:url(#path-9_2_);}
	.st3{fill:none;stroke:#DDDDDD;stroke-width:0.9375;stroke-opacity:0.5;}
	.st4{fill:url(#path-23_2_);}
	.st5{fill:#4BA2F2;}
	.st6{fill:#DEDEDF;}
	.st7{fill:#FFFFFF;}
	.st8{fill:#4F5565;}
	.st9{fill:#1A5099;}
</style>
<g id="Group-2_1_" transform="translate(205.960109, 0.000000)">
	<g id="Switch-bevel_1_">
		<g>
			<ellipse id="path-7_12_" cx="-126.4" cy="78.6" rx="78.6" ry="78.6"/>
		</g>
		<g>
			
				<linearGradient id="path-7_2_" gradientUnits="userSpaceOnUse" x1="-677.6915" y1="462.0824" x2="-677.6915" y2="461.043" gradientTransform="matrix(157.1358 0 0 -157.1716 106363.1875 72620.0313)">
				<stop  offset="0" style="stop-color:#FFFFFF"/>
				<stop  offset="1" style="stop-color:#F8F8F8"/>
			</linearGradient>
			<ellipse id="path-7_1_" class="st0" cx="-126.4" cy="78.6" rx="78.6" ry="78.6"/>
		</g>
		<ellipse class="st1" cx="-126.4" cy="78.6" rx="78.1" ry="78.1"/>
	</g>
	<g id="Switch-inner_1_">
		<g>
			<ellipse id="path-9_12_" cx="-126.4" cy="78.6" rx="67.3" ry="67.4"/>
		</g>
		<g>
			
				<linearGradient id="path-9_2_" gradientUnits="userSpaceOnUse" x1="-677.4243" y1="461.7266" x2="-677.4243" y2="460.7266" gradientTransform="matrix(134.6878 0 0 -134.7185 91114.3906 62214.3398)">
				<stop  offset="0" style="stop-color:#F8F8F8"/>
				<stop  offset="1" style="stop-color:#FFFFFF"/>
			</linearGradient>
			<ellipse id="path-9_1_" class="st2" cx="-126.4" cy="78.6" rx="67.3" ry="67.4"/>
		</g>
		<ellipse class="st3" cx="-126.4" cy="78.6" rx="66.9" ry="66.9"/>
	</g>
</g>
<g id="Group-2_3_" transform="translate(217.184093, 11.226542)">
	<g id="Switch-inner_5_">
		<g>
			<ellipse id="path-23_12_" cx="-137.6" cy="67.4" rx="67.3" ry="67.4"/>
		</g>
		<g>
			
				<linearGradient id="path-23_2_" gradientUnits="userSpaceOnUse" x1="-688.6482" y1="450.5" x2="-688.6482" y2="449.5" gradientTransform="matrix(134.6878 0 0 -134.7185 92614.8984 60690.6875)">
				<stop  offset="0" style="stop-color:#F8F8F8"/>
				<stop  offset="1" style="stop-color:#FFFFFF"/>
			</linearGradient>
			<ellipse id="path-23_1_" class="st4" cx="-137.6" cy="67.4" rx="67.3" ry="67.4"/>
		</g>
		<ellipse class="st1" cx="-137.6" cy="67.4" rx="66.8" ry="66.9"/>
	</g>
</g>
<g>
	<polygon class="st5" points="112.6,39.6 42.8,39.6 42.8,109.6 60,126.8 112.6,126.8 	"/>
	<polygon class="st6" points="109.8,35.1 40.1,35.1 40.1,105.2 57.3,122.3 109.8,122.3 	"/>
	<polygon class="st7" points="57.3,105.2 40.1,105.2 57.3,122.3 	"/>
	<path class="st8" d="M133.4,82.5v-7.6l-7-1c-0.3-1.2-0.8-2.4-1.5-3.5l4.3-5.6l-5.4-5.4l-5.6,4.3c-1.1-0.6-2.3-1.1-3.5-1.5l-1-7
		h-7.6l-1,7c-1.2,0.3-2.4,0.8-3.5,1.5l-5.6-4.3l-5.4,5.4l4.3,5.6c-0.6,1.1-1.1,2.3-1.5,3.5l-7,1v7.6l7,1c0.3,1.2,0.8,2.4,1.5,3.5
		l-4.3,5.6l5.4,5.4l5.6-4.3c1.1,0.6,2.3,1.1,3.5,1.5l1,7h7.6l1-7c1.2-0.3,2.4-0.8,3.5-1.5l5.6,4.3l5.4-5.4l-4.3-5.6
		c0.6-1.1,1.1-2.3,1.5-3.5L133.4,82.5z M109.8,87c-4.6,0-8.3-3.7-8.3-8.3c0-4.6,3.7-8.3,8.3-8.3c4.6,0,8.3,3.7,8.3,8.3
		C118.1,83.3,114.4,87,109.8,87z"/>
	<rect x="51.5" y="44.9" class="st7" width="47" height="10.3"/>
	<rect x="51.5" y="60.9" class="st7" width="17.7" height="21.3"/>
	<g>
		<rect x="51.5" y="90" class="st7" width="30.5" height="3.5"/>
		<rect x="51.5" y="98.1" class="st7" width="30.5" height="3.5"/>
	</g>
	<g id="Group" transform="translate(43.039891, 41.171917)">
		<path id="Shape" class="st9" d="M11.9,24.5c-0.7,0.5-1.3,1.2-1.6,2.1c-0.3,1,0.1,2,0.6,2.8c0.4,0.9,0.9,1.8,1.3,2.7
			c0.3,0.7,0.8,1.6,0.7,2.4c-0.1,0.6-0.3,1.1-0.4,1.7c-0.1,0.4,0.3,0,0.4-0.1c0.7-0.6,1.5-1.4,1.8-2.3c0.1-0.5,0.1-0.9-0.1-1.4
			c-0.2-0.4-0.4-0.9-0.6-1.3c-0.4-0.9-0.8-1.8-1.3-2.7c-0.2-0.3-0.3-0.7-0.5-1C12.1,27,12,26.6,12,26.2c0-0.3,0-0.6,0-0.9
			c0-0.2,0.1-0.4,0.1-0.7C12.2,24.5,12.1,24.4,11.9,24.5 M21.6,24.5c-0.7,0.5-1.3,1.2-1.6,2.1c-0.3,1,0.1,2,0.6,2.8
			c0.4,0.9,0.9,1.8,1.3,2.7c0.3,0.7,0.8,1.6,0.7,2.4c-0.1,0.6-0.3,1.1-0.4,1.7c-0.1,0.4,0.3,0,0.4-0.1c0.7-0.6,1.5-1.4,1.8-2.3
			c0.1-0.5,0.1-0.9-0.1-1.4c-0.2-0.4-0.4-0.9-0.6-1.3c-0.4-0.9-0.8-1.8-1.3-2.7c-0.2-0.3-0.3-0.7-0.5-1c-0.1-0.4-0.2-0.7-0.3-1.1
			c0-0.3,0-0.6,0-0.9c0-0.2,0.1-0.4,0.1-0.7C21.9,24.5,21.8,24.4,21.6,24.5"/>
		<path id="Shape_2_" class="st5" d="M16.6,22.9c-0.7,0.6-1.5,1.4-2,2.2c-0.3,0.6-0.4,1.2-0.2,1.9c0.2,0.8,0.5,1.5,0.8,2.3
			c0.6,1.4,1.4,2.7,2,4.2c0.2,0.5,0.4,1.1,0.5,1.7c0,0.7-0.2,1.4-0.4,2.1c0,0.2-0.2,0.4-0.1,0.6c0,0.1,0.1,0.1,0.2,0
			c0.4-0.3,0.7-0.6,1-0.9c0.9-0.8,1.9-1.9,1.8-3.2c0-0.5-0.3-1-0.5-1.5c-0.2-0.6-0.5-1.1-0.7-1.7c-0.5-1-1-2.1-1.5-3.1
			c-0.2-0.4-0.4-0.7-0.5-1.1c-0.2-0.5-0.3-1-0.3-1.5c0-0.4,0-0.8,0-1.2c0-0.3,0.1-0.5,0.1-0.7C16.9,22.8,16.8,22.8,16.6,22.9"/>
	</g>
</g>
</svg>
