<svg id="Layer_1" data-name="Layer 1" xmlns="http://www.w3.org/2000/svg" xmlns:xlink="http://www.w3.org/1999/xlink" viewBox="0 0 157.14 157.17"><defs><style>.cls-1{fill:url(#linear-gradient);}.cls-2,.cls-4,.cls-6,.cls-7,.cls-8{fill:none;}.cls-2{stroke:#ddd;stroke-opacity:0.5;stroke-width:0.94px;}.cls-3{fill:url(#linear-gradient-2);}.cls-4{stroke:#eaeaea;}.cls-5{fill:url(#linear-gradient-3);}.cls-6,.cls-7,.cls-8{stroke-width:3.75px;}.cls-6{stroke:url(#linear-gradient-4);}.cls-7{stroke:url(#linear-gradient-5);}.cls-8{stroke:url(#linear-gradient-6);}</style><linearGradient id="linear-gradient" x1="-417.51" y1="577.62" x2="-417.51" y2="575.74" gradientTransform="matrix(134.69, 0, 0, -134.72, 56312, 77824.31)" gradientUnits="userSpaceOnUse"><stop offset="0" stop-color="#eee"/><stop offset="1" stop-color="#fff"/></linearGradient><linearGradient id="linear-gradient-2" x1="-417.93" y1="577.97" x2="-417.93" y2="576.94" gradientTransform="matrix(157.14, 0, 0, -157.17, 65750.75, 90835.02)" gradientUnits="userSpaceOnUse"><stop offset="0" stop-color="#fff"/><stop offset="1" stop-color="#f8f8f8"/></linearGradient><linearGradient id="linear-gradient-3" x1="-417.51" y1="577.62" x2="-417.51" y2="576.62" gradientTransform="matrix(134.69, 0, 0, -134.72, 56311.47, 77827.7)" gradientUnits="userSpaceOnUse"><stop offset="0" stop-color="#f8f8f8"/><stop offset="1" stop-color="#fff"/></linearGradient><linearGradient id="linear-gradient-4" x1="-414.99" y1="573.91" x2="-413.66" y2="575.17" gradientTransform="matrix(63.72, 0, 0, -63.68, 26469.44, 36677.38)" gradientUnits="userSpaceOnUse"><stop offset="0" stop-color="#6f00ff"/><stop offset="1" stop-color="#ff0064"/></linearGradient><linearGradient id="linear-gradient-5" x1="-413.25" y1="572.37" x2="-411.57" y2="573.82" gradientTransform="matrix(48.72, 0, 0, -48.7, 20165.22, 27996.63)" xlink:href="#linear-gradient-4"/><linearGradient id="linear-gradient-6" x1="-409.76" y1="569.43" x2="-408.12" y2="570.97" gradientTransform="matrix(33.73, 0, 0, -33.72, 13861, 19315.88)" gradientUnits="userSpaceOnUse"><stop offset="0" stop-color="#6f00ff"/><stop offset="1" stop-color="#f8006c"/><stop offset="1" stop-color="#ff0064"/></linearGradient></defs><title>smt1</title><g id="Switch-inner-Copy"><ellipse cx="79.13" cy="75.22" rx="67.34" ry="67.36"/><ellipse id="path-30" class="cls-1" cx="79.13" cy="75.22" rx="67.34" ry="67.36"/><ellipse class="cls-2" cx="79.13" cy="75.22" rx="66.88" ry="66.89"/></g><g id="Group-2"><g id="Switch-bevel"><ellipse cx="78.57" cy="78.59" rx="78.57" ry="78.59"/><ellipse id="path-32" class="cls-3" cx="78.57" cy="78.59" rx="78.57" ry="78.59"/><ellipse class="cls-4" cx="78.57" cy="78.59" rx="78.07" ry="78.09"/></g><g id="Switch-inner"><ellipse cx="78.59" cy="78.61" rx="67.34" ry="67.36"/><ellipse id="path-34" class="cls-5" cx="78.59" cy="78.61" rx="67.34" ry="67.36"/><ellipse class="cls-4" cx="78.59" cy="78.61" rx="66.84" ry="66.86"/></g></g><polygon id="Polygon-2-Copy" class="cls-6" points="79.5 47.31 83.58 47.57 87.59 48.35 91.46 49.64 95.14 51.41 98.57 53.64 101.68 56.29 104.42 59.31 106.76 62.66 108.65 66.28 110.06 70.12 110.97 74.1 111.36 78.17 111.23 82.25 110.58 86.28 109.42 90.2 107.76 93.93 105.65 97.42 103.1 100.62 100.17 103.46 96.89 105.9 93.33 107.91 89.55 109.44 85.6 110.47 81.55 111 77.46 111 73.41 110.47 69.46 109.44 65.67 107.91 62.11 105.9 58.84 103.46 55.91 100.62 53.36 97.42 51.24 93.93 49.59 90.2 48.43 86.28 47.77 82.25 47.64 78.17 48.04 74.1 48.95 70.12 50.36 66.28 52.24 62.66 54.58 59.31 57.33 56.29 60.44 53.64 63.86 51.41 67.54 49.64 71.42 48.35 75.43 47.57 79.5 47.31"/><polygon id="Polygon-2-Copy-2" data-name="Polygon-2-Copy" class="cls-7" points="79.5 54.81 82.62 55.01 85.69 55.61 88.65 56.59 91.46 57.95 94.08 59.65 96.46 61.68 98.56 63.99 100.35 66.55 101.79 69.32 102.87 72.25 103.56 75.3 103.86 78.41 103.77 81.53 103.27 84.61 102.38 87.61 101.11 90.46 99.49 93.13 97.55 95.58 95.3 97.75 92.8 99.62 90.08 101.15 87.18 102.32 84.16 103.11 81.06 103.51 77.94 103.51 74.84 103.11 71.82 102.32 68.93 101.15 66.2 99.62 63.7 97.75 61.46 95.58 59.51 93.13 57.89 90.46 56.63 87.61 55.74 84.61 55.24 81.53 55.14 78.41 55.44 75.3 56.13 72.25 57.21 69.32 58.66 66.55 60.45 63.99 62.55 61.68 64.92 59.65 67.54 57.95 70.36 56.59 73.32 55.61 76.39 55.01 79.5 54.81"/><polygon id="Polygon-2-Copy-3" data-name="Polygon-2-Copy" class="cls-8" points="79.5 62.31 81.66 62.45 83.78 62.86 85.83 63.55 87.78 64.48 89.6 65.66 91.24 67.06 92.7 68.67 93.93 70.44 94.93 72.36 95.68 74.39 96.16 76.49 96.37 78.65 96.3 80.81 95.95 82.94 95.34 85.02 94.46 86.99 93.34 88.84 92 90.53 90.44 92.04 88.71 93.33 86.82 94.39 84.82 95.2 82.73 95.75 80.58 96.03 78.42 96.03 76.28 95.75 74.19 95.2 72.18 94.39 70.3 93.33 68.56 92.04 67.01 90.53 65.66 88.84 64.54 86.99 63.67 85.02 63.05 82.94 62.71 80.81 62.64 78.65 62.84 76.49 63.33 74.39 64.07 72.36 65.07 70.44 66.31 68.67 67.76 67.06 69.41 65.66 71.22 64.48 73.17 63.55 75.22 62.86 77.34 62.45 79.5 62.31"/></svg>