<svg id="Layer_1" data-name="Layer 1" xmlns="http://www.w3.org/2000/svg" viewBox="0 0 71.68 75.95"><defs><style>.cls-1{fill:#fff;}</style></defs><title>steem</title><g id="Group"><path id="Shape" class="cls-1" d="M8.64,8.55C5.33,11.3,1.93,14.71.54,18.86-1,23.74,1.17,28.74,3.3,33.1s4.48,8.81,6.51,13.39c1.59,3.6,3.83,7.86,3.31,11.9-.44,2.87-1.39,5.62-1.92,8.51-.44,1.91,1.39,0,2-.52C16.95,63.19,21,59.58,22.5,54.7a10.65,10.65,0,0,0-.52-7c-.85-2.24-1.81-4.36-2.76-6.58-2-4.47-4.16-8.92-6.29-13.39-.85-1.58-1.7-3.3-2.46-5A17.46,17.46,0,0,1,9.18,17a22.32,22.32,0,0,1,.11-4.67c.11-1.17.44-2.24.52-3.41.11-.69-.41-.91-1.18-.37m48.79,0c-3.31,2.76-6.7,6.17-8.1,10.31-1.59,4.88.63,9.88,2.76,14.24s4.48,8.81,6.51,13.39c1.59,3.6,3.83,7.86,3.31,11.9C61.48,61.26,60.52,64,60,66.9c-.44,1.91,1.39,0,2-.52,3.72-3.19,7.77-6.79,9.27-11.68a10.65,10.65,0,0,0-.52-7C69.92,45.45,69,43.32,68,41.11c-2-4.47-4.16-8.92-6.29-13.39-.85-1.58-1.7-3.3-2.46-5A17.46,17.46,0,0,1,58,17a22.32,22.32,0,0,1,.11-4.67c.11-1.17.44-2.24.52-3.41.09-.69-.44-.91-1.18-.37"/><path id="Shape-2" data-name="Shape" class="cls-1" d="M32.29.47c-3.72,3.08-7.77,6.79-10,11.16a12.84,12.84,0,0,0-1,9.47,90.5,90.5,0,0,0,4.16,11.38c3.09,7.12,7.14,13.81,10.12,21a27.69,27.69,0,0,1,2.46,8.29c.22,3.5-1,7.23-1.92,10.51-.22,1-.85,2.24-.74,3.19.11.74.52.43,1,.11A58.1,58.1,0,0,0,41.59,71C46,66.9,51,61.39,50.53,54.9c-.22-2.65-1.48-5.21-2.55-7.64-1.18-2.87-2.46-5.62-3.72-8.4-2.35-5.21-4.79-10.31-7.36-15.41a56.39,56.39,0,0,1-2.55-5.32,23.31,23.31,0,0,1-1.5-7.53,35,35,0,0,1,.22-5.84c.11-1.28.52-2.45.52-3.71.28-1.22-.35-1.3-1.31-.56"/></g></svg>